Antonio-Thin.ufo
<glyph name="eight" format="2">
  <advance width="830"/>
  <unicode hex="0038"/>
  <outline>
    <contour>
      <point x="421" y="-20" type="curve" smooth="yes"/>
      <point x="624" y="-20"/>
      <point x="718" y="110"/>
      <point x="718" y="413" type="curve" smooth="yes"/>
      <point x="718" y="434" type="line" smooth="yes"/>
      <point x="718" y="706"/>
      <point x="676" y="855"/>
      <point x="571" y="931" type="curve"/>
      <point x="673" y="1001"/>
      <point x="717" y="1126"/>
      <point x="717" y="1347" type="curve" smooth="yes"/>
      <point x="717" y="1650"/>
      <point x="629" y="1783"/>
      <point x="424" y="1783" type="curve" smooth="yes"/>
      <point x="217" y="1783"/>
      <point x="128" y="1650"/>
      <point x="128" y="1347" type="curve" smooth="yes"/>
      <point x="128" y="1121"/>
      <point x="169" y="995"/>
      <point x="265" y="927" type="curve"/>
      <point x="156" y="853"/>
      <point x="111" y="705"/>
      <point x="111" y="434" type="curve" smooth="yes"/>
      <point x="111" y="403" type="line" smooth="yes"/>
      <point x="120" y="107"/>
      <point x="213" y="-20"/>
    </contour>
    <contour>
      <point x="423" y="103" type="curve" smooth="yes"/>
      <point x="310" y="103"/>
      <point x="261" y="200"/>
      <point x="261" y="428" type="curve" smooth="yes"/>
      <point x="261" y="470" type="line" smooth="yes"/>
      <point x="261" y="749"/>
      <point x="313.32" y="869"/>
      <point x="423" y="869" type="curve" smooth="yes"/>
      <point x="521.91" y="869"/>
      <point x="570" y="752"/>
      <point x="570" y="482" type="curve" smooth="yes"/>
      <point x="570" y="439" type="line" smooth="yes"/>
      <point x="570" y="204"/>
      <point x="527" y="103"/>
    </contour>
    <contour>
      <point x="421" y="982" type="curve" smooth="yes"/>
      <point x="320" y="982"/>
      <point x="277" y="1092"/>
      <point x="277" y="1348" type="curve" smooth="yes"/>
      <point x="277" y="1562"/>
      <point x="320" y="1653"/>
      <point x="421" y="1653" type="curve" smooth="yes"/>
      <point x="524" y="1653"/>
      <point x="568" y="1563"/>
      <point x="568" y="1353" type="curve" smooth="yes"/>
      <point x="568" y="1093"/>
      <point x="524" y="982"/>
    </contour>
  </outline>
</glyph>
<glyph name="H" format="2">
  <advance width="952"/>
  <unicode hex="0048"/>
  <anchor x="476" y="0" name="bottom"/>
  <anchor x="476" y="880" name="center"/>
  <anchor x="476" y="1760" name="top"/>
  <anchor x="20" y="1760" name="topleft"/>
  <outline>
    <contour>
      <point x="166" y="0" type="line"/>
      <point x="315" y="0" type="line"/>
      <point x="315" y="886" type="line"/>
      <point x="637" y="886" type="line"/>
      <point x="637" y="0" type="line"/>
      <point x="786" y="0" type="line"/>
      <point x="786" y="1760" type="line"/>
      <point x="637" y="1760" type="line"/>
      <point x="637" y="998" type="line"/>
      <point x="315" y="998" type="line"/>
      <point x="315" y="1760" type="line"/>
      <point x="166" y="1760" type="line"/>
    </contour>
  </outline>
</glyph>
<glyph name="currency" format="2">
  <advance width="1159"/>
  <unicode hex="00A4"/>
  <outline>
    <contour>
      <point x="274" y="492" type="line"/>
      <point x="363" y="581" type="line"/>
      <point x="424" y="546"/>
      <point x="496" y="528"/>
      <point x="579" y="528" type="curve" smooth="yes"/>
      <point x="661" y="528"/>
      <point x="733" y="545"/>
      <point x="795" y="580" type="curve"/>
      <point x="884" y="492" type="line"/>
      <point x="1034" y="641" type="line"/>
      <point x="944" y="731" type="line"/>
      <point x="980" y="796"/>
      <point x="998" y="868"/>
      <point x="998" y="947" type="curve" smooth="yes"/>
      <point x="998" y="1026"/>
      <point x="980" y="1097"/>
      <point x="944" y="1162" type="curve"/>
      <point x="1034" y="1252" type="line"/>
      <point x="884" y="1401" type="line"/>
      <point x="797" y="1314" type="line"/>
      <point x="732" y="1350"/>
      <point x="659" y="1368"/>
      <point x="579" y="1368" type="curve" smooth="yes"/>
      <point x="498" y="1368"/>
      <point x="426" y="1350"/>
      <point x="361" y="1313" type="curve"/>
      <point x="274" y="1401" type="line"/>
      <point x="125" y="1251" type="line"/>
      <point x="215" y="1161" type="line"/>
      <point x="180" y="1096"/>
      <point x="163" y="1025"/>
      <point x="163" y="947" type="curve" smooth="yes"/>
      <point x="163" y="870"/>
      <point x="181" y="798"/>
      <point x="216" y="733" type="curve"/>
      <point x="125" y="642" type="line"/>
    </contour>
    <contour>
      <point x="579" y="631" type="curve" smooth="yes"/>
      <point x="398" y="631"/>
      <point x="283" y="772"/>
      <point x="283" y="947" type="curve" smooth="yes"/>
      <point x="283" y="1121"/>
      <point x="399" y="1262"/>
      <point x="579" y="1262" type="curve" smooth="yes"/>
      <point x="762" y="1262"/>
      <point x="876" y="1129"/>
      <point x="876" y="949" type="curve" smooth="yes"/>
      <point x="876" y="774"/>
      <point x="760" y="631"/>
    </contour>
  </outline>
</glyph>
<glyph name="yen" format="2">
  <advance width="786"/>
  <unicode hex="00A5"/>
  <anchor x="393" y="0" name="bottom"/>
  <anchor x="393" y="1760" name="top"/>
  <anchor x="20" y="1760" name="topleft"/>
  <outline>
    <contour>
      <point x="57" y="462" type="line"/>
      <point x="733" y="462" type="line"/>
      <point x="733" y="544" type="line"/>
      <point x="445" y="544" type="line"/>
      <point x="445" y="741" type="line"/>
      <point x="733" y="741" type="line"/>
      <point x="733" y="824" type="line"/>
      <point x="57" y="824" type="line"/>
      <point x="57" y="741" type="line"/>
      <point x="392" y="741" type="line"/>
      <point x="392" y="544" type="line"/>
      <point x="57" y="544" type="line"/>
    </contour>
    <component base="Y"/>
  </outline>
</glyph>
<glyph name="section" format="2">
  <advance width="764"/>
  <unicode hex="00A7"/>
  <outline>
    <contour>
      <point x="419" y="-20" type="curve" smooth="yes"/>
      <point x="621" y="-22"/>
      <point x="716" y="121"/>
      <point x="696" y="325" type="curve" smooth="yes"/>
      <point x="688" y="409"/>
      <point x="654" y="520"/>
      <point x="591" y="600" type="curve"/>
      <point x="616" y="658"/>
      <point x="637" y="713"/>
      <point x="637" y="766" type="curve" smooth="yes"/>
      <point x="637" y="889.699"/>
      <point x="584" y="978"/>
      <point x="515.657" y="1060.37" type="curve" smooth="yes"/>
      <point x="433" y="1160" type="line" smooth="yes"/>
      <point x="303" y="1317"/>
      <point x="261" y="1357"/>
      <point x="263" y="1500" type="curve" smooth="yes"/>
      <point x="265" y="1639"/>
      <point x="343" y="1658"/>
      <point x="415" y="1658" type="curve" smooth="yes"/>
      <point x="526" y="1658"/>
      <point x="547" y="1535"/>
      <point x="547" y="1327" type="curve" smooth="yes"/>
      <point x="547" y="1220" type="line"/>
      <point x="680" y="1220" type="line"/>
      <point x="680" y="1360" type="line" smooth="yes"/>
      <point x="680" y="1656"/>
      <point x="611" y="1783"/>
      <point x="407" y="1783" type="curve" smooth="yes"/>
      <point x="233" y="1783"/>
      <point x="118" y="1696"/>
      <point x="127" y="1475" type="curve" smooth="yes"/>
      <point x="130" y="1399"/>
      <point x="152" y="1328"/>
      <point x="208" y="1236" type="curve"/>
      <point x="131" y="1163"/>
      <point x="126" y="1077"/>
      <point x="126" y="1015" type="curve" smooth="yes"/>
      <point x="126" y="923.956"/>
      <point x="179" y="843"/>
      <point x="254" y="768" type="curve" smooth="yes"/>
      <point x="340" y="682" type="line" smooth="yes"/>
      <point x="448" y="574"/>
      <point x="557.5" y="461.5"/>
      <point x="564" y="310" type="curve" smooth="yes"/>
      <point x="571" y="139"/>
      <point x="496" y="94"/>
      <point x="397" y="104" type="curve" smooth="yes"/>
      <point x="302" y="114"/>
      <point x="266" y="206"/>
      <point x="266" y="409" type="curve" smooth="yes"/>
      <point x="266" y="526" type="line"/>
      <point x="129" y="526" type="line"/>
      <point x="129" y="397" type="line" smooth="yes"/>
      <point x="129" y="98"/>
      <point x="210" y="-18"/>
    </contour>
    <contour>
      <point x="512" y="681" type="curve"/>
      <point x="392" y="811"/>
      <point x="247" y="918"/>
      <point x="241" y="1040" type="curve" smooth="yes"/>
      <point x="239" y="1082"/>
      <point x="243" y="1113"/>
      <point x="270" y="1152" type="curve"/>
      <point x="453" y="949"/>
      <point x="519" y="888"/>
      <point x="519" y="759" type="curve" smooth="yes"/>
      <point x="519" y="730"/>
      <point x="517" y="697"/>
    </contour>
  </outline>
</glyph>
<glyph name="ordmasculine" format="2">
  <advance width="908"/>
  <unicode hex="00BA"/>
  <outline>
    <contour>
      <point x="477" y="527" type="curve" smooth="yes"/>
      <point x="701" y="527"/>
      <point x="710" y="709"/>
      <point x="710" y="954" type="curve" smooth="yes"/>
      <point x="710" y="1358" type="line" smooth="yes"/>
      <point x="710" y="1586"/>
      <point x="691" y="1760"/>
      <point x="477" y="1760" type="curve" smooth="yes"/>
      <point x="262" y="1760"/>
      <point x="239" y="1585"/>
      <point x="239" y="1358" type="curve" smooth="yes"/>
      <point x="239" y="954" type="line" smooth="yes"/>
      <point x="239" y="705"/>
      <point x="254" y="527"/>
    </contour>
    <contour>
      <point x="477" y="631" type="curve" smooth="yes"/>
      <point x="368" y="631"/>
      <point x="358" y="744"/>
      <point x="358" y="913" type="curve" smooth="yes"/>
      <point x="358" y="1387" type="line" smooth="yes"/>
      <point x="358" y="1545"/>
      <point x="369" y="1653"/>
      <point x="477" y="1653" type="curve" smooth="yes"/>
      <point x="577" y="1653"/>
      <point x="590" y="1545"/>
      <point x="590" y="1387" type="curve" smooth="yes"/>
      <point x="590" y="913" type="line" smooth="yes"/>
      <point x="590" y="745"/>
      <point x="578" y="631"/>
    </contour>
  </outline>
</glyph>
<glyph name="oslash" format="2">
  <advance width="845"/>
  <unicode hex="00F8"/>
  <anchor x="423" y="0" name="bottom"/>
  <anchor x="423" y="750" name="center"/>
  <anchor x="761" y="10" name="ogonek"/>
  <anchor x="423" y="1500" name="top"/>
  <anchor x="825" y="1500" name="topright"/>
  <outline>
    <contour>
      <point x="284" y="-223" type="line"/>
      <point x="622" y="1738" type="line"/>
      <point x="561" y="1746" type="line"/>
      <point x="223" y="-215" type="line"/>
    </contour>
    <contour>
      <point x="426" y="-18" type="curve" smooth="yes"/>
      <point x="705" y="-18"/>
      <point x="717" y="209"/>
      <point x="717" y="515" type="curve" smooth="yes"/>
      <point x="717" y="1018" type="line" smooth="yes"/>
      <point x="717" y="1301"/>
      <point x="696" y="1518"/>
      <point x="426" y="1518" type="curve" smooth="yes"/>
      <point x="157" y="1518"/>
      <point x="128" y="1300"/>
      <point x="128" y="1018" type="curve" smooth="yes"/>
      <point x="128" y="515" type="line" smooth="yes"/>
      <point x="128" y="204"/>
      <point x="149" y="-18"/>
    </contour>
    <contour>
      <point x="426" y="113" type="curve" smooth="yes"/>
      <point x="293" y="113"/>
      <point x="277" y="253"/>
      <point x="277" y="463" type="curve" smooth="yes"/>
      <point x="277" y="1053" type="line" smooth="yes"/>
      <point x="277" y="1250"/>
      <point x="291" y="1387"/>
      <point x="426" y="1387" type="curve" smooth="yes"/>
      <point x="551" y="1387"/>
      <point x="568" y="1250"/>
      <point x="568" y="1053" type="curve" smooth="yes"/>
      <point x="568" y="463" type="line" smooth="yes"/>
      <point x="568" y="253"/>
      <point x="550" y="113"/>
    </contour>
  </outline>
</glyph>
<glyph name="lslash" format="2">
  <advance width="709"/>
  <unicode hex="0142"/>
  <anchor x="327" y="0" name="bottom"/>
  <anchor x="327" y="891" name="center"/>
  <anchor x="327" y="1782" name="top"/>
  <anchor x="539" y="1782" name="topright"/>
  <outline>
    <contour>
      <point x="99" y="778" type="line"/>
      <point x="610" y="1010" type="line"/>
      <point x="610" y="1153" type="line"/>
      <point x="99" y="921" type="line"/>
    </contour>
    <contour>
      <point x="256" y="0" type="line"/>
      <point x="406" y="0" type="line"/>
      <point x="406" y="1783" type="line"/>
      <point x="256" y="1783" type="line"/>
    </contour>
  </outline>
</glyph>
<glyph name="florin" format="2">
  <advance width="687"/>
  <unicode hex="0192"/>
  <outline>
    <contour>
      <point x="176" y="-155" type="curve" smooth="yes"/>
      <point x="335" y="-155"/>
      <point x="419" y="-101"/>
      <point x="419" y="63" type="curve" smooth="yes"/>
      <point x="419" y="1120" type="line"/>
      <point x="635" y="1120" type="line"/>
      <point x="635" y="1224" type="line"/>
      <point x="419" y="1224" type="line"/>
      <point x="419" y="1560" type="line" smooth="yes"/>
      <point x="419" y="1659"/>
      <point x="454" y="1678"/>
      <point x="527" y="1678" type="curve" smooth="yes"/>
      <point x="552" y="1678"/>
      <point x="583" y="1675"/>
      <point x="618" y="1673" type="curve"/>
      <point x="618" y="1776" type="line"/>
      <point x="579" y="1780"/>
      <point x="542" y="1782"/>
      <point x="509" y="1782" type="curve" smooth="yes"/>
      <point x="370" y="1782"/>
      <point x="282" y="1741"/>
      <point x="282" y="1563" type="curve" smooth="yes"/>
      <point x="282" y="1224" type="line"/>
      <point x="77" y="1224" type="line"/>
      <point x="77" y="1120" type="line"/>
      <point x="282" y="1120" type="line"/>
      <point x="282" y="123" type="line" smooth="yes"/>
      <point x="282" y="-18"/>
      <point x="266" y="-53"/>
      <point x="145" y="-54" type="curve" smooth="yes"/>
      <point x="126" y="-54"/>
      <point x="105" y="-53"/>
      <point x="81" y="-52" type="curve"/>
      <point x="81" y="-150" type="line"/>
      <point x="115" y="-153"/>
      <point x="147" y="-155"/>
    </contour>
  </outline>
</glyph>
<glyph name="acutecomb" format="2">
  <unicode hex="0301"/>
  <anchor x="137" y="1500" name="_top"/>
  <anchor x="137" y="1972" name="top"/>
  <outline>
    <contour>
      <point x="50" y="1640" type="line"/>
      <point x="119" y="1640" type="line"/>
      <point x="304" y="1972" type="line"/>
      <point x="144" y="1972" type="line"/>
    </contour>
  </outline>
</glyph>
<glyph name="circumflexcomb" format="2">
  <unicode hex="0302"/>
  <anchor x="254" y="1500" name="_top"/>
  <anchor x="254" y="1894" name="top"/>
  <outline>
    <contour>
      <point x="50" y="1640" type="line"/>
      <point x="168" y="1640" type="line"/>
      <point x="254" y="1815" type="line"/>
      <point x="340" y="1640" type="line"/>
      <point x="457" y="1640" type="line"/>
      <point x="337" y="1894" type="line"/>
      <point x="171" y="1894" type="line"/>
    </contour>
  </outline>
</glyph>
<glyph name="tildecomb" format="2">
  <unicode hex="0303"/>
  <anchor x="342" y="1500" name="_top"/>
  <anchor x="342" y="1840" name="top"/>
  <outline>
    <contour>
      <point x="483" y="1640" type="curve" smooth="yes"/>
      <point x="547" y="1640"/>
      <point x="583" y="1656"/>
      <point x="624" y="1785" type="curve"/>
      <point x="633" y="1811" type="line"/>
      <point x="528" y="1840" type="line"/>
      <point x="507" y="1780"/>
      <point x="491" y="1771"/>
      <point x="472" y="1768" type="curve"/>
      <point x="468" y="1768" type="line" smooth="yes"/>
      <point x="418" y="1768"/>
      <point x="299" y="1840"/>
      <point x="218" y="1840" type="curve" smooth="yes"/>
      <point x="154" y="1840"/>
      <point x="89" y="1842"/>
      <point x="50" y="1707" type="curve"/>
      <point x="143" y="1661" type="line"/>
      <point x="161" y="1696"/>
      <point x="172" y="1715"/>
      <point x="194" y="1720" type="curve" smooth="yes"/>
      <point x="201" y="1722"/>
      <point x="209" y="1722"/>
      <point x="217" y="1722" type="curve" smooth="yes"/>
      <point x="300" y="1722"/>
      <point x="395" y="1640"/>
    </contour>
  </outline>
</glyph>
<glyph name="dotaccentcomb" format="2">
  <unicode hex="0307"/>
  <anchor x="125" y="1500" name="_top"/>
  <anchor x="125" y="1783" name="top"/>
  <outline>
    <contour>
      <point x="50" y="1638" type="line"/>
      <point x="199" y="1638" type="line"/>
      <point x="199" y="1783" type="line"/>
      <point x="50" y="1783" type="line"/>
    </contour>
  </outline>
</glyph>
<glyph name="ringcomb" format="2">
  <unicode hex="030A"/>
  <anchor x="219" y="1500" name="_top"/>
  <anchor x="219" y="1946" name="top"/>
  <outline>
    <contour>
      <point x="219" y="1640" type="curve" smooth="yes"/>
      <point x="334" y="1640"/>
      <point x="388" y="1719"/>
      <point x="388" y="1792" type="curve" smooth="yes"/>
      <point x="388" y="1866"/>
      <point x="334" y="1946"/>
      <point x="219" y="1946" type="curve" smooth="yes"/>
      <point x="105" y="1946"/>
      <point x="50" y="1866"/>
      <point x="50" y="1792" type="curve" smooth="yes"/>
      <point x="50" y="1719"/>
      <point x="105" y="1640"/>
    </contour>
    <contour>
      <point x="219" y="1691" type="curve" smooth="yes"/>
      <point x="155" y="1691"/>
      <point x="122" y="1742"/>
      <point x="122" y="1793" type="curve" smooth="yes"/>
      <point x="122" y="1844"/>
      <point x="155" y="1895"/>
      <point x="219" y="1895" type="curve" smooth="yes"/>
      <point x="286" y="1895"/>
      <point x="319" y="1844"/>
      <point x="319" y="1793" type="curve" smooth="yes"/>
      <point x="319" y="1742"/>
      <point x="286" y="1691"/>
    </contour>
  </outline>
</glyph>
<glyph name="hungarumlautcomb" format="2">
  <unicode hex="030B"/>
  <anchor x="228" y="1500" name="_top"/>
  <anchor x="228" y="2012" name="top"/>
  <outline>
    <contour>
      <point x="309" y="1640" type="line"/>
      <point x="465" y="1955" type="line"/>
      <point x="360" y="2012" type="line"/>
      <point x="260" y="1664" type="line"/>
    </contour>
    <contour>
      <point x="99" y="1640" type="line"/>
      <point x="214" y="1955" type="line"/>
      <point x="113" y="2012" type="line"/>
      <point x="50" y="1664" type="line"/>
    </contour>
  </outline>
</glyph>
<glyph name="caroncomb" format="2">
  <unicode hex="030C"/>
  <anchor x="254" y="1500" name="_top"/>
  <anchor x="254" y="1893" name="top"/>
  <outline>
    <contour>
      <point x="171" y="1640" type="line"/>
      <point x="337" y="1640" type="line"/>
      <point x="457" y="1893" type="line"/>
      <point x="340" y="1893" type="line"/>
      <point x="254" y="1718" type="line"/>
      <point x="168" y="1893" type="line"/>
      <point x="50" y="1893" type="line"/>
    </contour>
  </outline>
</glyph>
<glyph name="uni0311" format="2">
  <unicode hex="0311"/>
  <anchor x="241" y="1500" name="_top"/>
  <anchor x="241" y="1870" name="top"/>
  <outline>
    <contour>
      <point x="50" y="1660" type="line"/>
      <point x="114" y="1663" type="line"/>
      <point x="112" y="1758"/>
      <point x="180" y="1778"/>
      <point x="236" y="1779" type="curve" smooth="yes"/>
      <point x="297" y="1781"/>
      <point x="366" y="1761"/>
      <point x="368" y="1670" type="curve"/>
      <point x="432" y="1673" type="line"/>
      <point x="432" y="1688" type="line"/>
      <point x="429" y="1803"/>
      <point x="360" y="1875"/>
      <point x="236" y="1870" type="curve"/>
      <point x="106" y="1867"/>
      <point x="47" y="1786"/>
      <point x="50" y="1673" type="curve"/>
    </contour>
  </outline>
</glyph>
<glyph name="commaaccentcomb" format="2">
  <unicode hex="0326"/>
  <anchor x="149" y="0" name="_bottom"/>
  <anchor x="149" y="-587" name="bottom"/>
  <outline>
    <contour>
      <point x="107" y="-587" type="line"/>
      <point x="169" y="-587" type="line"/>
      <point x="247" y="-305" type="line"/>
      <point x="247" y="-122" type="line"/>
      <point x="50" y="-122" type="line"/>
      <point x="50" y="-314" type="line"/>
      <point x="150" y="-314" type="line"/>
    </contour>
  </outline>
</glyph>
<glyph name="cedillacomb" format="2">
  <unicode hex="0327"/>
  <anchor x="188" y="0" name="_bottom"/>
  <anchor x="228" y="-596" name="bottom"/>
  <outline>
    <contour>
      <point x="137" y="-596" type="curve" smooth="yes"/>
      <point x="293" y="-596"/>
      <point x="406" y="-492"/>
      <point x="406" y="-376" type="curve" smooth="yes"/>
      <point x="406" y="-297"/>
      <point x="355" y="-211"/>
      <point x="227" y="-147" type="curve"/>
      <point x="218" y="0" type="line"/>
      <point x="161" y="0" type="line"/>
      <point x="121" y="-196" type="line"/>
      <point x="203" y="-214"/>
      <point x="281" y="-269"/>
      <point x="281" y="-359" type="curve" smooth="yes"/>
      <point x="281" y="-434"/>
      <point x="239" y="-501"/>
      <point x="50" y="-501" type="curve"/>
      <point x="50" y="-587" type="line"/>
      <point x="81" y="-593"/>
      <point x="109" y="-596"/>
    </contour>
  </outline>
</glyph>
<glyph name="ogonekcomb" format="2">
  <unicode hex="0328"/>
  <anchor x="260" y="3" name="_ogonek"/>
  <outline>
    <contour>
      <point x="240" y="-428" type="curve" smooth="yes"/>
      <point x="304" y="-428"/>
      <point x="361" y="-413"/>
      <point x="371" y="-408" type="curve"/>
      <point x="371" y="-315" type="line"/>
      <point x="370" y="-317"/>
      <point x="310" y="-336"/>
      <point x="252" y="-336" type="curve" smooth="yes"/>
      <point x="197" y="-336"/>
      <point x="144" y="-318"/>
      <point x="144" y="-249" type="curve" smooth="yes"/>
      <point x="144" y="-181"/>
      <point x="187" y="-85"/>
      <point x="290" y="3" type="curve"/>
      <point x="226" y="3" type="line"/>
      <point x="102" y="-89"/>
      <point x="50" y="-196"/>
      <point x="50" y="-282" type="curve" smooth="yes"/>
      <point x="50" y="-400"/>
      <point x="151" y="-428"/>
    </contour>
  </outline>
</glyph>
<glyph name="Euro" format="2">
  <advance width="880"/>
  <unicode hex="20AC"/>
  <anchor x="446" y="0" name="bottom"/>
  <anchor x="446" y="1760" name="top"/>
  <outline>
    <contour>
      <point x="60" y="751" type="line"/>
      <point x="487" y="751" type="line"/>
      <point x="487" y="849" type="line"/>
      <point x="263" y="849" type="line"/>
      <point x="263" y="986" type="line"/>
      <point x="487" y="986" type="line"/>
      <point x="487" y="1076" type="line"/>
      <point x="60" y="1076" type="line"/>
      <point x="60" y="986" type="line"/>
      <point x="193" y="986" type="line"/>
      <point x="193" y="849" type="line"/>
      <point x="60" y="849" type="line"/>
    </contour>
    <component base="C" xOffset="12"/>
  </outline>
</glyph>
<glyph name="notequal" format="2">
  <advance width="761"/>
  <unicode hex="2260"/>
  <outline>
    <contour>
      <point x="88" y="0" type="line"/>
      <point x="222" y="0" type="line"/>
      <point x="374" y="601" type="line"/>
      <point x="628" y="601" type="line"/>
      <point x="628" y="729" type="line"/>
      <point x="406" y="729" type="line"/>
      <point x="449" y="896" type="line"/>
      <point x="628" y="896" type="line"/>
      <point x="628" y="1025" type="line"/>
      <point x="481" y="1025" type="line"/>
      <point x="673" y="1783" type="line"/>
      <point x="538" y="1783" type="line"/>
      <point x="347" y="1025" type="line"/>
      <point x="94" y="1025" type="line"/>
      <point x="94" y="896" type="line"/>
      <point x="314" y="896" type="line"/>
      <point x="272" y="729" type="line"/>
      <point x="94" y="729" type="line"/>
      <point x="94" y="601" type="line"/>
      <point x="240" y="601" type="line"/>
    </contour>
  </outline>
</glyph>
<glyph name="caroncomb.alt" format="2">
  <anchor x="-150" y="2095" name="#entry"/>
  <anchor x="149" y="1500" name="_top"/>
  <anchor x="149" y="2095" name="top"/>
  <outline>
    <contour>
      <point x="107" y="1630" type="line"/>
      <point x="169" y="1630" type="line"/>
      <point x="247" y="1912" type="line"/>
      <point x="247" y="2095" type="line"/>
      <point x="50" y="2095" type="line"/>
      <point x="50" y="1903" type="line"/>
      <point x="150" y="1903" type="line"/>
    </contour>
  </outline>
</glyph>
